<svg width="33" height="38" viewBox="0 0 33 38" fill="none" xmlns="http://www.w3.org/2000/svg">
<g filter="url(#filter0_d_1_498)">
<path d="M25.1124 26.9583V19.0351H27.7533V29.5996H4V19.0351H6.64091V26.9583H25.1124Z" fill="#BCBBBC"/>
<path d="M9.28491 24.317H22.4895V21.6761H9.28491V24.317ZM21.1195 2.86102e-05L19.0004 1.57607L26.8811 12.1713L29.0001 10.5952L21.1195 2.86102e-05ZM14.5694 6.24648L24.7159 14.6969L26.406 12.6675L16.2595 4.21713L14.5694 6.24648ZM11.2569 12.1189L23.227 17.6937L24.342 15.2997L12.3719 9.7249L11.2569 12.1189ZM9.54713 18.3063L22.4695 21.0222L23.0126 18.4377L10.0903 15.7218L9.54713 18.3063Z" fill="#F48023"/>
</g>
<defs>
<filter id="filter0_d_1_498" x="0" y="0" width="33" height="37.5996" filterUnits="userSpaceOnUse" color-interpolation-filters="sRGB">
<feFlood flood-opacity="0" result="BackgroundImageFix"/>
<feColorMatrix in="SourceAlpha" type="matrix" values="0 0 0 0 0 0 0 0 0 0 0 0 0 0 0 0 0 0 127 0" result="hardAlpha"/>
<feOffset dy="4"/>
<feGaussianBlur stdDeviation="2"/>
<feComposite in2="hardAlpha" operator="out"/>
<feColorMatrix type="matrix" values="0 0 0 0 0 0 0 0 0 0 0 0 0 0 0 0 0 0 0.25 0"/>
<feBlend mode="normal" in2="BackgroundImageFix" result="effect1_dropShadow_1_498"/>
<feBlend mode="normal" in="SourceGraphic" in2="effect1_dropShadow_1_498" result="shape"/>
</filter>
</defs>
</svg>
